<?xml version="1.0" standalone="no"?>
<!DOCTYPE svg PUBLIC "-//W3C//DTD SVG 20010904//EN"
 "http://www.w3.org/TR/2001/REC-SVG-20010904/DTD/svg10.dtd">
<svg version="1.0" xmlns="http://www.w3.org/2000/svg"
 width="496.000000pt" height="496.000000pt" viewBox="0 0 496.000000 496.000000"
 preserveAspectRatio="xMidYMid meet">
<metadata>
Created by potrace 1.11, written by Peter Selinger 2001-2013
</metadata>
<g transform="translate(0.000000,496.000000) scale(0.100000,-0.100000)"
fill="#000000" stroke="none">
<path d="M1497 4929 c-10 -43 -58 -207 -120 -414 -25 -82 -78 -258 -117 -390
-39 -132 -76 -253 -81 -270 -14 -44 -170 -565 -179 -600 -4 -16 -20 -70 -35
-120 -15 -49 -33 -110 -40 -135 -7 -25 -38 -130 -69 -233 -32 -104 -55 -191
-53 -194 6 -5 1406 -7 1412 -1 2 2 -3 26 -11 53 -15 51 -56 190 -124 420 -21
72 -47 159 -58 195 -11 36 -37 121 -57 190 -20 69 -81 274 -135 455 -53 182
-100 339 -103 350 -3 11 -17 58 -32 105 -14 47 -28 92 -30 100 -2 8 -33 114
-69 235 -36 121 -66 224 -66 230 0 6 -6 20 -14 30 -12 17 -13 17 -19 -6z"/>
<path d="M3448 4944 c-3 -5 -27 -81 -53 -169 -26 -88 -74 -250 -107 -360 -33
-110 -62 -207 -64 -215 -2 -8 -15 -53 -30 -100 -14 -47 -29 -98 -34 -115 -4
-16 -22 -77 -40 -135 -18 -58 -34 -112 -35 -120 -2 -8 -22 -76 -45 -150 -23
-74 -50 -166 -61 -205 -12 -38 -36 -119 -54 -180 -156 -511 -187 -624 -177
-657 6 -18 17 -55 26 -83 20 -67 205 -688 221 -745 13 -45 68 -231 235 -790
50 -168 100 -334 110 -370 10 -36 32 -112 50 -170 17 -58 33 -112 35 -120 2
-8 16 -53 30 -100 15 -47 29 -96 31 -110 3 -14 9 -29 14 -34 6 -6 1124 -12
1389 -7 27 1 32 4 28 19 -10 36 -79 270 -187 632 -62 206 -116 389 -120 405
-5 17 -17 59 -28 95 -11 36 -32 106 -47 155 -36 124 -180 609 -215 725 -92
307 -251 841 -255 860 0 3 -13 43 -27 90 -15 47 -92 306 -172 575 -80 270
-199 672 -266 895 -67 223 -123 415 -126 427 -8 39 -21 67 -26 57z"/>
<path d="M647 2063 c-4 -8 -23 -71 -71 -233 -13 -47 -90 -305 -171 -575 -317
-1062 -366 -1228 -361 -1233 3 -2 441 -6 973 -7 532 -2 1190 -4 1461 -5 271
-2 495 0 498 2 2 3 -7 43 -21 89 -34 112 -69 228 -95 319 -12 41 -25 86 -30
100 -5 14 -18 57 -29 95 -29 103 -111 375 -122 410 -5 17 -67 226 -138 465
-71 239 -139 468 -150 508 l-22 72 -859 0 c-472 0 -861 -3 -863 -7z"/>
</g>
</svg>
